<?xml version="1.0" encoding="utf-8"?>
<!-- Generator: Adobe Illustrator 26.2.1, SVG Export Plug-In . SVG Version: 6.00 Build 0)  -->
<svg version="1.1" id="_x2018_ëîé_x5F_1" xmlns="http://www.w3.org/2000/svg" xmlns:xlink="http://www.w3.org/1999/xlink"
	 x="0px" y="0px" viewBox="0 0 32 32" style="enable-background:new 0 0 32 32;" xml:space="preserve">
<style type="text/css">
	.st0{fill:#DE4E60;}
	.st1{fill:#6AA4F4;}
	.st2{fill:#FFFFFF;}
	.st3{fill:url(#SVGID_1_);}
	.st4{fill:url(#SVGID_00000070832859957792129440000012153275495841383072_);}
	.st5{fill:#3275DA;}
	.st6{fill:url(#SVGID_00000169535676207522646670000010238073397678891962_);}
	.st7{fill:#EEEEEE;}
	.st8{fill:url(#SVGID_00000138530865808644698080000009632613724059695527_);}
	.st9{fill:none;stroke:#212121;stroke-width:5;stroke-miterlimit:10;}
	.st10{fill:url(#SVGID_00000081622571665671283360000000348392101644209588_);}
	.st11{fill:#616161;}
	.st12{fill:#EAEAEA;}
	.st13{clip-path:url(#SVGID_00000028293302621466788890000017665442950406960302_);}
	.st14{clip-path:url(#SVGID_00000120545389074641357060000002510304859099982983_);}
	.st15{clip-path:url(#SVGID_00000132766547434728348930000006056477314020837811_);}
	.st16{clip-path:url(#SVGID_00000013179905772792538500000004577716148793357474_);}
	.st17{clip-path:url(#SVGID_00000177483424694977606840000017143792039117981881_);}
	.st18{clip-path:url(#SVGID_00000181790245539327598830000015451471340338494342_);}
	.st19{fill:#B0B0B0;}
	.st20{fill:#3886E3;}
	.st21{fill:#CCCCCC;}
	.st22{clip-path:url(#SVGID_00000038383615478277091770000007945964792936861829_);}
</style>
<g>
	<path d="M25.48,28.5c-0.07,0-0.14-0.01-0.21-0.03l-5.49-1.86c-1.22,0.41-2.49,0.62-3.78,0.62c-6.54,0-11.86-5.32-11.86-11.86
		S9.46,3.5,16,3.5s11.86,5.32,11.86,11.86c0,2.93-1.07,5.71-3.01,7.89l1.26,4.42c0.07,0.23,0,0.48-0.18,0.65
		C25.81,28.44,25.64,28.5,25.48,28.5z M19.78,25.26c0.07,0,0.14,0.01,0.21,0.03l4.53,1.53l-1.02-3.58c-0.06-0.22,0-0.46,0.15-0.63
		c1.87-1.97,2.9-4.55,2.9-7.27C26.56,9.54,21.82,4.8,16,4.8S5.44,9.54,5.44,15.36c0,5.82,4.74,10.56,10.56,10.56
		c1.22,0,2.41-0.21,3.56-0.62C19.63,25.28,19.7,25.26,19.78,25.26z"/>
</g>
</svg>
