<?xml version="1.0" encoding="utf-8"?>
<!-- Generator: Adobe Illustrator 26.2.1, SVG Export Plug-In . SVG Version: 6.00 Build 0)  -->
<svg version="1.1" id="_x2018_ëîé_x5F_1" xmlns="http://www.w3.org/2000/svg" xmlns:xlink="http://www.w3.org/1999/xlink"
	 x="0px" y="0px" viewBox="0 0 32 32" style="enable-background:new 0 0 32 32;" xml:space="preserve">
<style type="text/css">
	.st0{fill:#DE4E60;}
	.st1{fill:#6AA4F4;}
	.st2{fill:#FFFFFF;}
	.st3{fill:url(#SVGID_1_);}
	.st4{fill:url(#SVGID_00000024708836490216511210000017255186331151205554_);}
	.st5{fill:#3275DA;}
	.st6{fill:url(#SVGID_00000131366204542877587120000015729311170734870456_);}
	.st7{fill:#EEEEEE;}
	.st8{fill:url(#SVGID_00000043451824241724418290000000277238608778603651_);}
	.st9{fill:none;stroke:#212121;stroke-width:5;stroke-miterlimit:10;}
	.st10{fill:url(#SVGID_00000152235342838236485900000002496770249714790323_);}
	.st11{fill:#616161;}
	.st12{fill:#EAEAEA;}
	.st13{clip-path:url(#SVGID_00000170249943721458408530000015379670159830815641_);}
	.st14{clip-path:url(#SVGID_00000171715387004092902260000011672336855800310719_);}
	.st15{clip-path:url(#SVGID_00000029004468208178825360000016139403939304847262_);}
	.st16{clip-path:url(#SVGID_00000021811100690980624180000011617609413823374991_);}
	.st17{clip-path:url(#SVGID_00000074420560272529313510000009194346624789235601_);}
	.st18{clip-path:url(#SVGID_00000058560154186358347990000010287379635283573160_);}
	.st19{fill:#B0B0B0;}
	.st20{fill:#3886E3;}
	.st21{fill:#CCCCCC;}
	.st22{clip-path:url(#SVGID_00000141442919783671132120000015719281103502928530_);}
</style>
<g>
	<path d="M16,28.5c-0.12,0-0.25-0.04-0.36-0.11C14.98,27.97-0.51,17.8,2.35,8.69c0.92-3.06,3.8-5.19,7-5.19
		c1.65,0,3.22,0.54,4.51,1.56c0.02,0.02,1.32,1.08,2.14,2.02c0.82-0.94,2.12-2,2.14-2.02C19.44,4.04,21,3.5,22.65,3.5
		c3.2,0,6.08,2.14,7,5.19l0,0c2.85,9.1-12.63,19.27-13.29,19.7C16.25,28.46,16.12,28.5,16,28.5z M9.35,4.82
		c-2.62,0-4.98,1.75-5.74,4.26C1.27,16.53,13.7,25.47,16,27.05c2.3-1.57,14.73-10.52,12.39-17.96c0,0,0,0,0-0.01
		c-0.76-2.51-3.12-4.26-5.74-4.26c-1.36,0-2.64,0.44-3.7,1.28c-0.4,0.33-2.06,1.84-2.31,2.27c-0.07,0.29-0.33,0.5-0.64,0.5
		c-0.31,0-0.57-0.21-0.64-0.5c-0.26-0.43-1.91-1.94-2.32-2.28C11.98,5.26,10.7,4.82,9.35,4.82z"/>
</g>
</svg>
