<?xml version="1.0" encoding="utf-8"?>
<!-- Generator: Adobe Illustrator 26.2.1, SVG Export Plug-In . SVG Version: 6.00 Build 0)  -->
<svg version="1.1" id="_x2018_ëîé_x5F_1" xmlns="http://www.w3.org/2000/svg" xmlns:xlink="http://www.w3.org/1999/xlink"
	 x="0px" y="0px" viewBox="0 0 32 32" style="enable-background:new 0 0 32 32;" xml:space="preserve">
<style type="text/css">
	.st0{fill:#DE4E60;}
	.st1{fill:#6AA4F4;}
	.st2{fill:#FFFFFF;}
	.st3{fill:url(#SVGID_1_);}
	.st4{fill:url(#SVGID_00000034089286906982835810000016869122576628933263_);}
	.st5{fill:#3275DA;}
	.st6{fill:url(#SVGID_00000129182097623685780880000014714786286350030779_);}
	.st7{fill:#EEEEEE;}
	.st8{fill:url(#SVGID_00000013184130663512632920000016753334348832533130_);}
	.st9{fill:none;stroke:#212121;stroke-width:5;stroke-miterlimit:10;}
	.st10{fill:url(#SVGID_00000128472148269044162680000004609516527389766321_);}
	.st11{fill:#616161;}
	.st12{fill:#EAEAEA;}
	.st13{clip-path:url(#SVGID_00000090254857907585677770000001260112013961003406_);}
	.st14{clip-path:url(#SVGID_00000050631665239590091300000000022856254089329841_);}
	.st15{clip-path:url(#SVGID_00000013184390177660667360000012211421083259693496_);}
	.st16{clip-path:url(#SVGID_00000140001992741209844560000016102466822797728658_);}
	.st17{clip-path:url(#SVGID_00000008870449555724713680000010286223552246343059_);}
	.st18{clip-path:url(#SVGID_00000098188189030289830010000015173917818659121596_);}
	.st19{fill:#B0B0B0;}
	.st20{fill:#3886E3;}
	.st21{fill:#CCCCCC;}
	.st22{clip-path:url(#SVGID_00000077296300772583868430000010388319959839512965_);}
</style>
<path class="st0" d="M29.75,8.49L29.75,8.49C28.88,5.61,26.2,3.5,23.02,3.5c-1.64,0-3.14,0.56-4.34,1.5l0,0l0,0
	c-0.12,0.1-2.66,2.32-2.69,2.78C15.98,7.32,13.43,5.09,13.31,5l0,0l0,0c-1.19-0.94-2.7-1.5-4.34-1.5c-3.17,0-5.85,2.11-6.73,5l0,0
	C-0.64,17.71,16,28.5,16,28.5S32.64,17.71,29.75,8.49z"/>
</svg>
