<?xml version="1.0" encoding="utf-8"?>
<!-- Generator: Adobe Illustrator 26.2.1, SVG Export Plug-In . SVG Version: 6.00 Build 0)  -->
<svg version="1.1" id="_x2018_ëîé_x5F_1" xmlns="http://www.w3.org/2000/svg" xmlns:xlink="http://www.w3.org/1999/xlink"
	 x="0px" y="0px" viewBox="0 0 32 32" style="enable-background:new 0 0 32 32;" xml:space="preserve">
<style type="text/css">
	.st0{fill:#DE4E60;}
	.st1{fill:#6AA4F4;}
	.st2{fill:#FFFFFF;}
	.st3{fill:url(#SVGID_1_);}
	.st4{fill:url(#SVGID_00000084517245298672613450000002632915063570810557_);}
	.st5{fill:#3275DA;}
	.st6{fill:url(#SVGID_00000159441204863435147610000005300500761731244967_);}
	.st7{fill:#EEEEEE;}
	.st8{fill:url(#SVGID_00000025409975481591344720000007527185062116869534_);}
	.st9{fill:none;stroke:#212121;stroke-width:5;stroke-miterlimit:10;}
	.st10{fill:url(#SVGID_00000116215570328641598790000018314020225244397503_);}
	.st11{fill:#616161;}
	.st12{fill:#EAEAEA;}
	.st13{clip-path:url(#SVGID_00000042727368815498527530000016495154722444979872_);}
	.st14{clip-path:url(#SVGID_00000062883511082914012120000007340658944956167334_);}
	.st15{clip-path:url(#SVGID_00000069390786310627616370000016044656195083073700_);}
	.st16{clip-path:url(#SVGID_00000088852829725309114020000004477736995098505869_);}
	.st17{clip-path:url(#SVGID_00000160182114261096781040000003038677188984202408_);}
	.st18{clip-path:url(#SVGID_00000129888998531620007780000015833710068242502846_);}
	.st19{fill:#B0B0B0;}
	.st20{fill:#3886E3;}
	.st21{fill:#CCCCCC;}
	.st22{clip-path:url(#SVGID_00000145751471018069282190000013885967120878692232_);}
</style>
<g>
	<g>
		<path d="M23.81,28.5H8.19c-2.59,0-4.69-2.1-4.69-4.69V8.19C3.5,5.6,5.6,3.5,8.19,3.5h15.62c2.59,0,4.69,2.1,4.69,4.69v15.62
			C28.5,26.4,26.4,28.5,23.81,28.5z M8.19,4.95c-1.78,0-3.24,1.45-3.24,3.24v15.62c0,1.78,1.45,3.24,3.24,3.24h15.62
			c1.78,0,3.24-1.45,3.24-3.24V8.19c0-1.78-1.45-3.24-3.24-3.24H8.19z"/>
	</g>
	<g>
		<path d="M21.58,15.27h-4.85v-4.85c0-0.4-0.33-0.73-0.73-0.73c-0.4,0-0.73,0.33-0.73,0.73v4.85h-4.85c-0.4,0-0.73,0.33-0.73,0.73
			c0,0.4,0.33,0.73,0.73,0.73h4.85v4.85c0,0.4,0.33,0.73,0.73,0.73c0.4,0,0.73-0.33,0.73-0.73v-4.85h4.85c0.4,0,0.73-0.33,0.73-0.73
			C22.31,15.6,21.98,15.27,21.58,15.27z"/>
	</g>
</g>
</svg>
