<?xml version="1.0" encoding="utf-8"?>
<!-- Generator: Adobe Illustrator 26.2.1, SVG Export Plug-In . SVG Version: 6.00 Build 0)  -->
<svg version="1.1" id="_x2018_ëîé_x5F_1" xmlns="http://www.w3.org/2000/svg" xmlns:xlink="http://www.w3.org/1999/xlink"
	 x="0px" y="0px" viewBox="0 0 32 32" style="enable-background:new 0 0 32 32;" xml:space="preserve">
<style type="text/css">
	.st0{fill:#DE4E60;}
	.st1{fill:#6AA4F4;}
	.st2{fill:#FFFFFF;}
	.st3{fill:url(#SVGID_1_);}
	.st4{fill:url(#SVGID_00000165937192634122815780000000685621660262607753_);}
	.st5{fill:#3275DA;}
	.st6{fill:url(#SVGID_00000114040926820468680610000015953206027033674670_);}
	.st7{fill:#EEEEEE;}
	.st8{fill:url(#SVGID_00000060021906349375476540000002660507136177701537_);}
	.st9{fill:none;stroke:#212121;stroke-width:5;stroke-miterlimit:10;}
	.st10{fill:url(#SVGID_00000054256555402523630370000005884775243199074726_);}
	.st11{fill:#616161;}
	.st12{fill:#EAEAEA;}
	.st13{clip-path:url(#SVGID_00000128445603466126040000000017014527745357869747_);}
	.st14{clip-path:url(#SVGID_00000039110208465273627210000004865264549702801829_);}
	.st15{clip-path:url(#SVGID_00000157297902861856740540000009707552399669217182_);}
	.st16{clip-path:url(#SVGID_00000103241985394953645100000017698315651487289790_);}
	.st17{clip-path:url(#SVGID_00000162345349446219485040000018097265950571388830_);}
	.st18{clip-path:url(#SVGID_00000021088745319757037370000002101039423508267140_);}
	.st19{fill:#B0B0B0;}
	.st20{fill:#3886E3;}
	.st21{fill:#CCCCCC;}
	.st22{clip-path:url(#SVGID_00000043418431321959943900000011730097004726612106_);}
</style>
<g>
	<g id="search">
		<path class="st11" d="M28.22,26.88l-7.47-7.47c1.43-1.74,2.21-3.9,2.21-6.18c0-2.6-1.01-5.04-2.85-6.88c-3.8-3.8-9.97-3.8-13.77,0
			C4.51,8.19,3.5,10.63,3.5,13.23c0,2.6,1.01,5.04,2.85,6.88c1.84,1.84,4.28,2.85,6.88,2.85c2.28,0,4.44-0.78,6.18-2.21l7.47,7.47
			c0.19,0.19,0.43,0.28,0.67,0.28c0.24,0,0.49-0.09,0.67-0.28C28.59,27.85,28.59,27.25,28.22,26.88z M7.69,18.77
			c-1.48-1.48-2.29-3.45-2.29-5.54c0-2.09,0.81-4.06,2.29-5.54c1.53-1.53,3.53-2.29,5.54-2.29c2.01,0,4.01,0.76,5.54,2.29
			c1.48,1.48,2.29,3.45,2.29,5.54c0,2.09-0.81,4.06-2.29,5.54c-1.48,1.48-3.45,2.29-5.54,2.29C11.14,21.06,9.17,20.25,7.69,18.77z"
			/>
	</g>
</g>
</svg>
