<?xml version="1.0" encoding="utf-8"?>
<!-- Generator: Adobe Illustrator 26.2.1, SVG Export Plug-In . SVG Version: 6.00 Build 0)  -->
<svg version="1.1" id="_x2018_ëîé_x5F_1" xmlns="http://www.w3.org/2000/svg" xmlns:xlink="http://www.w3.org/1999/xlink"
	 x="0px" y="0px" viewBox="0 0 32 32" style="enable-background:new 0 0 32 32;" xml:space="preserve">
<style type="text/css">
	.st0{fill:#DE4E60;}
	.st1{fill:#6AA4F4;}
	.st2{fill:#FFFFFF;}
	.st3{fill:url(#SVGID_1_);}
	.st4{fill:url(#SVGID_00000021833363106271102970000017970261903162502794_);}
	.st5{fill:#3275DA;}
	.st6{fill:url(#SVGID_00000175317522352006888560000008225855720957020810_);}
	.st7{fill:#EEEEEE;}
	.st8{fill:url(#SVGID_00000153702130037091091700000011082635449156805248_);}
	.st9{fill:none;stroke:#212121;stroke-width:5;stroke-miterlimit:10;}
	.st10{fill:url(#SVGID_00000134209096211264855200000004057829412929927870_);}
	.st11{fill:#616161;}
	.st12{fill:#EAEAEA;}
	.st13{clip-path:url(#SVGID_00000042720391306679454370000001992510807751713960_);}
	.st14{clip-path:url(#SVGID_00000125594236336475878970000017996471080804763028_);}
	.st15{clip-path:url(#SVGID_00000054955408081370239850000012910586871237228216_);}
	.st16{clip-path:url(#SVGID_00000181077364168161457740000000432727464979702166_);}
	.st17{clip-path:url(#SVGID_00000079458384990756411480000002581988101594520712_);}
	.st18{clip-path:url(#SVGID_00000142165285616536980440000010259492942299838862_);}
	.st19{fill:#B0B0B0;}
	.st20{fill:#3886E3;}
	.st21{fill:#CCCCCC;}
	.st22{clip-path:url(#SVGID_00000109030196082824246510000017627094027883712175_);}
</style>
<path d="M28.5,17.44v-2.89c0-0.39-0.31-0.7-0.7-0.7h-0.34c-0.32,0-0.6-0.21-0.67-0.52c-0.27-1.1-0.71-2.14-1.28-3.08
	c-0.16-0.27-0.12-0.62,0.11-0.84l0.24-0.24c0.27-0.27,0.27-0.71,0-0.99l-2.04-2.04c-0.27-0.27-0.71-0.27-0.99,0l-0.24,0.24
	c-0.22,0.22-0.57,0.27-0.84,0.11c-0.95-0.57-1.98-1.01-3.08-1.28c-0.31-0.08-0.52-0.36-0.52-0.67V4.2c0-0.39-0.31-0.7-0.7-0.7h-2.89
	c-0.39,0-0.7,0.31-0.7,0.7v0.34c0,0.32-0.21,0.6-0.52,0.67c-1.1,0.27-2.14,0.71-3.08,1.28C9.99,6.66,9.64,6.61,9.41,6.39L9.17,6.14
	c-0.27-0.27-0.71-0.27-0.99,0L6.14,8.18c-0.27,0.27-0.27,0.71,0,0.99l0.24,0.24c0.22,0.22,0.27,0.57,0.11,0.84
	c-0.57,0.95-1.01,1.98-1.28,3.08c-0.08,0.31-0.36,0.52-0.67,0.52H4.2c-0.39,0-0.7,0.31-0.7,0.7v2.89c0,0.39,0.31,0.7,0.7,0.7h0.34
	c0.32,0,0.6,0.21,0.67,0.52c0.27,1.1,0.71,2.14,1.28,3.08c0.16,0.27,0.12,0.62-0.11,0.84l-0.24,0.24c-0.27,0.27-0.27,0.71,0,0.99
	l2.04,2.04c0.27,0.27,0.71,0.27,0.99,0l0.24-0.24c0.22-0.22,0.57-0.27,0.84-0.11c0.95,0.57,1.98,1.01,3.08,1.28
	c0.31,0.08,0.52,0.36,0.52,0.67v0.34c0,0.39,0.31,0.7,0.7,0.7h2.89c0.39,0,0.7-0.31,0.7-0.7v-0.34c0-0.32,0.21-0.6,0.52-0.67
	c1.1-0.27,2.14-0.71,3.08-1.28c0.27-0.16,0.62-0.12,0.84,0.11l0.24,0.24c0.27,0.27,0.71,0.27,0.99,0l2.04-2.04
	c0.27-0.27,0.27-0.71,0-0.99l-0.24-0.24c-0.22-0.22-0.27-0.57-0.11-0.84c0.57-0.95,1.01-1.98,1.28-3.08
	c0.08-0.31,0.36-0.52,0.67-0.52h0.34C28.19,18.14,28.5,17.83,28.5,17.44z M16,25.31c-5.13,0-9.31-4.18-9.31-9.31S10.87,6.69,16,6.69
	c5.13,0,9.31,4.18,9.31,9.31S21.13,25.31,16,25.31z"/>
</svg>
