<?xml version="1.0" encoding="utf-8"?>
<!-- Generator: Adobe Illustrator 26.2.1, SVG Export Plug-In . SVG Version: 6.00 Build 0)  -->
<svg version="1.1" id="_x2018_ëîé_x5F_1" xmlns="http://www.w3.org/2000/svg" xmlns:xlink="http://www.w3.org/1999/xlink"
	 x="0px" y="0px" viewBox="0 0 32 32" style="enable-background:new 0 0 32 32;" xml:space="preserve">
<style type="text/css">
	.st0{fill:#DE4E60;}
	.st1{fill:#6AA4F4;}
	.st2{fill:#FFFFFF;}
	.st3{fill:url(#SVGID_1_);}
	.st4{fill:url(#SVGID_00000041264323099777517370000011369511786568692399_);}
	.st5{fill:#3275DA;}
	.st6{fill:url(#SVGID_00000075841820259835301860000001379334380236747934_);}
	.st7{fill:#EEEEEE;}
	.st8{fill:url(#SVGID_00000101798807921686251830000009341482026871851924_);}
	.st9{fill:none;stroke:#212121;stroke-width:5;stroke-miterlimit:10;}
	.st10{fill:url(#SVGID_00000044886925402631672930000013700892026757793440_);}
	.st11{fill:#616161;}
	.st12{fill:#EAEAEA;}
	.st13{clip-path:url(#SVGID_00000111904440770571359180000017180749138839440003_);}
	.st14{clip-path:url(#SVGID_00000150811304391075806790000013507044541576713406_);}
	.st15{clip-path:url(#SVGID_00000132804489033762343600000011833046106477050527_);}
	.st16{clip-path:url(#SVGID_00000154421937598929005180000002700076179259420605_);}
	.st17{clip-path:url(#SVGID_00000050634438758927133540000014029989984154045581_);}
	.st18{clip-path:url(#SVGID_00000178181965449286750280000001786155542528891552_);}
	.st19{fill:#B0B0B0;}
	.st20{fill:#3886E3;}
	.st21{fill:#CCCCCC;}
	.st22{clip-path:url(#SVGID_00000127749216931786311180000001597456849391695020_);}
</style>
<g>
	<g>
		<path d="M16,16.21c-3.5,0-6.35-2.85-6.35-6.35c0-3.5,2.85-6.35,6.35-6.35c3.5,0,6.35,2.85,6.35,6.35
			C22.35,13.36,19.5,16.21,16,16.21z M16,4.86c-2.75,0-4.99,2.24-4.99,4.99c0,2.75,2.24,4.99,4.99,4.99s4.99-2.24,4.99-4.99
			C20.99,7.1,18.75,4.86,16,4.86z"/>
	</g>
	<g>
		<path d="M27.84,28.5h-1.36v-4.25c0-2.35-1.91-4.27-4.27-4.27H9.79c-2.35,0-4.27,1.91-4.27,4.27v4.25H4.16v-4.25
			c0-3.1,2.53-5.63,5.63-5.63h12.42c3.1,0,5.63,2.53,5.63,5.63V28.5z"/>
	</g>
</g>
</svg>
